# xmcd
#
# Track frame offsets: 
#        150
#        19099
#        35582
#        54662
#        71904
#        93660
#        112049
#        139078
#        156603
#        175727
#        192424
#        212429
#        233574
#        252865
#        272566
#        294996
#        315122
#        330378
#
# Disc length: 4681 seconds
#
# Revision: 2
# Processed by: cddbd v1.4PL0 Copyright (c) Steve Scherf et al.
# Submitted via: ExactAudioCopy v0.90b4
#
DISCID=02124712
DTITLE=Air Supply - Forever Love [CD2]
DYEAR=2003
DGENRE=Ballad
TTITLE0=Lonely Is The Night
TTITLE1=What Becomes of the Broken Hearted?
TTITLE2=Someone Who Believes in You
TTITLE3=Where Did The Feeling Go?
TTITLE4=Without You (Live)
TTITLE5=Goodbye
TTITLE6=It's Never Too Late
TTITLE7=Too Sentimental
TTITLE8=Always
TTITLE9=Unchained Melody
TTITLE10=I Want To Give It All (Live)
TTITLE11=The Way I Feel
TTITLE12=Now and Forever
TTITLE13=Strong Strong Wind
TTITLE14=Once
TTITLE15=Daybreak
TTITLE16=Only One Forever
TTITLE17=Yours Truly
EXTD=
EXTT0=
EXTT1=
EXTT2=
EXTT3=
EXTT4=
EXTT5=
EXTT6=
EXTT7=
EXTT8=
EXTT9=
EXTT10=
EXTT11=
EXTT12=
EXTT13=
EXTT14=
EXTT15=
EXTT16=
EXTT17=
PLAYORDER=
